<svg width="18" height="25" viewBox="0 0 18 25" fill="none" xmlns="http://www.w3.org/2000/svg">
<g clip-path="url(#clip0)">
<mask id="path-1-inside-1" fill="white">
<path d="M2.18202 0.78418L2.18202 2.96299L6.54712 2.96299V0.78418L2.18202 0.78418ZM6.54712 2.96299L6.54712 5.14502L8.7302 5.14502V2.96299L6.54712 2.96299ZM8.7302 5.14502L8.7302 7.32809H10.909L10.909 5.14502H8.7302ZM10.909 7.32809V9.5101H13.091V7.32809H10.909ZM13.091 9.5101V11.6932H15.2741V9.5101H13.091ZM15.2741 11.6932V13.8752L17.4561 13.8752L17.4561 11.6932L15.2741 11.6932ZM15.2741 13.8752H13.091V16.0583H15.2741V13.8752ZM13.091 16.0583H10.909L10.909 18.236L13.091 18.236L13.091 16.0583ZM10.909 18.236H8.7302V20.4191H10.909V18.236ZM8.7302 20.4191H6.54712V22.6011H8.7302V20.4191ZM6.54712 22.6011H2.18202L2.18202 24.7842H6.54712V22.6011ZM2.18202 22.6011L2.18202 20.4191H0L0 22.6011H2.18202ZM2.18202 20.4191H4.3651L4.3651 18.236H2.18202L2.18202 20.4191ZM4.3651 18.236H6.54712V16.0583H4.3651V18.236ZM6.54712 16.0583H8.7302V13.8752H6.54712L6.54712 16.0583ZM8.7302 13.8752H10.909V11.6932H8.7302V13.8752ZM8.7302 11.6932V9.5101H6.54712V11.6932H8.7302ZM6.54712 9.5101L6.54712 7.32809H4.3651L4.3651 9.5101L6.54712 9.5101ZM4.3651 7.32809V5.14502L2.18202 5.14502V7.32809L4.3651 7.32809ZM2.18202 5.14502L2.18202 2.96299L0 2.96299L0 5.14502H2.18202Z"/>
</mask>
<path d="M2.18202 0.78418L2.18202 -39.5308L-38.1329 -39.5308L-38.1329 0.78418L2.18202 0.78418ZM2.18202 2.96299L-38.1329 2.96299L-38.1329 43.2779L2.18202 43.2779L2.18202 2.96299ZM6.54712 2.96299L6.54712 43.2779L46.8621 43.2779L46.8621 2.96299L6.54712 2.96299ZM6.54712 0.78418L46.8621 0.78418L46.8621 -39.5308L6.54712 -39.5308L6.54712 0.78418ZM6.54712 2.96299L6.54712 -37.352L-33.7678 -37.352L-33.7678 2.96299L6.54712 2.96299ZM6.54712 5.14502L-33.7678 5.14502L-33.7678 45.46L6.54712 45.46L6.54712 5.14502ZM8.7302 5.14502L8.7302 45.46L49.0452 45.46L49.0452 5.14502L8.7302 5.14502ZM8.7302 2.96299L49.0452 2.96299L49.0452 -37.352L8.7302 -37.352L8.7302 2.96299ZM8.7302 5.14502L8.7302 -35.1699L-31.5848 -35.1699L-31.5848 5.14502L8.7302 5.14502ZM8.7302 7.32809L-31.5848 7.32809L-31.5848 47.643L8.7302 47.643L8.7302 7.32809ZM10.909 7.32809L10.909 47.643L51.224 47.643L51.224 7.32809L10.909 7.32809ZM10.909 5.14502L51.224 5.14502L51.224 -35.1699L10.909 -35.1699L10.909 5.14502ZM10.909 7.32809L10.909 -32.9869L-29.406 -32.9869L-29.406 7.32809L10.909 7.32809ZM10.909 9.5101L-29.406 9.5101L-29.406 49.8251L10.909 49.8251L10.909 9.5101ZM13.091 9.5101L13.091 49.8251L53.406 49.8251L53.406 9.5101L13.091 9.5101ZM13.091 7.32809L53.406 7.32809L53.406 -32.9869L13.091 -32.9869L13.091 7.32809ZM13.091 9.5101L13.091 -30.8049L-27.2239 -30.8049L-27.2239 9.5101L13.091 9.5101ZM13.091 11.6932L-27.2239 11.6932L-27.2239 52.0081L13.091 52.0081L13.091 11.6932ZM15.2741 11.6932L15.2741 52.0081L55.5891 52.0081L55.5891 11.6932L15.2741 11.6932ZM15.2741 9.5101L55.5891 9.5101L55.5891 -30.8049L15.2741 -30.8049L15.2741 9.5101ZM15.2741 11.6932L15.2741 -28.6218L-25.0409 -28.6218L-25.0409 11.6932L15.2741 11.6932ZM15.2741 13.8752L-25.0409 13.8752L-25.0409 54.1901L15.2741 54.1901L15.2741 13.8752ZM17.4561 13.8752L17.4561 54.1901L57.7711 54.1901L57.7711 13.8752L17.4561 13.8752ZM17.4561 11.6932L57.7711 11.6932L57.7711 -28.6218L17.4561 -28.6218L17.4561 11.6932ZM15.2741 13.8752L55.5891 13.8752L55.5891 -26.4398L15.2741 -26.4398L15.2741 13.8752ZM13.091 13.8752L13.091 -26.4398L-27.2239 -26.4398L-27.2239 13.8752L13.091 13.8752ZM13.091 16.0583L-27.2239 16.0583L-27.2239 56.3732L13.091 56.3732L13.091 16.0583ZM15.2741 16.0583L15.2741 56.3732L55.5891 56.3732L55.5891 16.0583L15.2741 16.0583ZM13.091 16.0583L53.406 16.0583L53.406 -24.2567L13.091 -24.2567L13.091 16.0583ZM10.909 16.0583L10.909 -24.2567L-29.406 -24.2567L-29.406 16.0583L10.909 16.0583ZM10.909 18.236L-29.406 18.236L-29.406 58.551L10.909 58.551L10.909 18.236ZM13.091 18.236L13.091 58.551L53.406 58.551L53.406 18.236L13.091 18.236ZM10.909 18.236L51.224 18.236L51.224 -22.0789L10.909 -22.0789L10.909 18.236ZM8.7302 18.236L8.7302 -22.0789L-31.5848 -22.0789L-31.5848 18.236L8.7302 18.236ZM8.7302 20.4191L-31.5848 20.4191L-31.5848 60.7341L8.7302 60.7341L8.7302 20.4191ZM10.909 20.4191L10.909 60.7341L51.224 60.7341L51.224 20.4191L10.909 20.4191ZM8.7302 20.4191L49.0452 20.4191V-19.8959L8.7302 -19.8959L8.7302 20.4191ZM6.54712 20.4191L6.54712 -19.8959L-33.7678 -19.8959V20.4191L6.54712 20.4191ZM6.54712 22.6011L-33.7678 22.6011L-33.7678 62.9161L6.54712 62.9161L6.54712 22.6011ZM8.7302 22.6011L8.7302 62.9161L49.0452 62.9161L49.0452 22.6011L8.7302 22.6011ZM6.54712 22.6011L46.8621 22.6011V-17.7139L6.54712 -17.7139L6.54712 22.6011ZM2.18202 22.6011L2.18202 -17.7139L-38.1329 -17.7139V22.6011L2.18202 22.6011ZM2.18202 24.7842L-38.1329 24.7842V65.0991H2.18202L2.18202 24.7842ZM6.54712 24.7842L6.54712 65.0991L46.8621 65.0991V24.7842L6.54712 24.7842ZM2.18202 22.6011L2.18202 62.9161L42.497 62.9161L42.497 22.6011L2.18202 22.6011ZM2.18202 20.4191L42.497 20.4191V-19.8959L2.18202 -19.8959L2.18202 20.4191ZM0 20.4191L0 -19.8959L-40.315 -19.8959V20.4191L0 20.4191ZM0 22.6011L-40.315 22.6011L-40.315 62.9161L0 62.9161L0 22.6011ZM2.18202 20.4191L-38.1329 20.4191L-38.1329 60.7341L2.18202 60.7341L2.18202 20.4191ZM4.3651 20.4191L4.3651 60.7341L44.6801 60.7341L44.6801 20.4191L4.3651 20.4191ZM4.3651 18.236L44.6801 18.236L44.6801 -22.0789L4.3651 -22.0789L4.3651 18.236ZM2.18202 18.236L2.18202 -22.0789L-38.1329 -22.0789L-38.1329 18.236L2.18202 18.236ZM4.3651 18.236L-35.9499 18.236L-35.9499 58.551L4.3651 58.551L4.3651 18.236ZM6.54712 18.236L6.54712 58.551L46.8621 58.551L46.8621 18.236L6.54712 18.236ZM6.54712 16.0583L46.8621 16.0583L46.8621 -24.2567L6.54712 -24.2567L6.54712 16.0583ZM4.3651 16.0583L4.3651 -24.2567L-35.9499 -24.2567L-35.9499 16.0583L4.3651 16.0583ZM6.54712 16.0583L-33.7678 16.0583L-33.7678 56.3732L6.54712 56.3732L6.54712 16.0583ZM8.7302 16.0583L8.7302 56.3732L49.0452 56.3732L49.0452 16.0583L8.7302 16.0583ZM8.7302 13.8752L49.0452 13.8752L49.0452 -26.4398L8.7302 -26.4398L8.7302 13.8752ZM6.54712 13.8752L6.54712 -26.4398L-33.7678 -26.4398L-33.7678 13.8752L6.54712 13.8752ZM8.7302 13.8752L-31.5848 13.8752L-31.5848 54.1901L8.7302 54.1901L8.7302 13.8752ZM10.909 13.8752L10.909 54.1901L51.224 54.1901L51.224 13.8752L10.909 13.8752ZM10.909 11.6932L51.224 11.6932L51.224 -28.6218L10.909 -28.6218L10.909 11.6932ZM8.7302 11.6932L8.7302 -28.6218L-31.5848 -28.6218L-31.5848 11.6932L8.7302 11.6932ZM8.7302 11.6932L8.7302 52.0081L49.0452 52.0081L49.0452 11.6932L8.7302 11.6932ZM8.7302 9.5101L49.0452 9.5101L49.0452 -30.8049L8.7302 -30.8049L8.7302 9.5101ZM6.54712 9.5101L6.54712 -30.8049L-33.7678 -30.8049L-33.7678 9.5101L6.54712 9.5101ZM6.54712 11.6932L-33.7678 11.6932L-33.7678 52.0081L6.54712 52.0081L6.54712 11.6932ZM6.54712 9.5101L6.54712 49.8251L46.8621 49.8251L46.8621 9.5101L6.54712 9.5101ZM6.54712 7.32809L46.8621 7.32809L46.8621 -32.9869L6.54712 -32.9869L6.54712 7.32809ZM4.3651 7.32809L4.3651 -32.9869L-35.9499 -32.9869L-35.9499 7.32809L4.3651 7.32809ZM4.3651 9.5101L-35.9499 9.5101L-35.9499 49.8251L4.3651 49.8251L4.3651 9.5101ZM4.3651 7.32809L4.3651 47.643L44.6801 47.643L44.6801 7.32809L4.3651 7.32809ZM4.3651 5.14502L44.6801 5.14502L44.6801 -35.1699L4.3651 -35.1699L4.3651 5.14502ZM2.18202 5.14502L2.18202 -35.1699L-38.1329 -35.1699L-38.1329 5.14502L2.18202 5.14502ZM2.18202 7.32809L-38.1329 7.32809L-38.1329 47.643L2.18202 47.643L2.18202 7.32809ZM2.18202 5.14502L2.18202 45.46L42.497 45.46L42.497 5.14502L2.18202 5.14502ZM2.18202 2.96299L42.497 2.96299L42.497 -37.352L2.18202 -37.352L2.18202 2.96299ZM0 2.96299L0 -37.352L-40.315 -37.352L-40.315 2.96299L0 2.96299ZM0 5.14502L-40.315 5.14502L-40.315 45.46L0 45.46L0 5.14502ZM-38.1329 0.78418V2.96299L42.497 2.96299V0.78418L-38.1329 0.78418ZM2.18202 43.2779H6.54712L6.54712 -37.352H2.18202L2.18202 43.2779ZM46.8621 2.96299V0.78418L-33.7678 0.78418V2.96299L46.8621 2.96299ZM6.54712 -39.5308H2.18202L2.18202 41.0991H6.54712L6.54712 -39.5308ZM-33.7678 2.96299V5.14502L46.8621 5.14502V2.96299L-33.7678 2.96299ZM6.54712 45.46H8.7302L8.7302 -35.1699H6.54712L6.54712 45.46ZM49.0452 5.14502V2.96299L-31.5848 2.96299V5.14502L49.0452 5.14502ZM8.7302 -37.352H6.54712L6.54712 43.2779H8.7302L8.7302 -37.352ZM-31.5848 5.14502V7.32809L49.0452 7.32809V5.14502L-31.5848 5.14502ZM8.7302 47.643H10.909L10.909 -32.9869H8.7302L8.7302 47.643ZM51.224 7.32809V5.14502L-29.406 5.14502V7.32809L51.224 7.32809ZM10.909 -35.1699H8.7302L8.7302 45.46H10.909L10.909 -35.1699ZM-29.406 7.32809V9.5101L51.224 9.5101V7.32809L-29.406 7.32809ZM10.909 49.8251H13.091L13.091 -30.8049L10.909 -30.8049L10.909 49.8251ZM53.406 9.5101V7.32809L-27.2239 7.32809V9.5101L53.406 9.5101ZM13.091 -32.9869H10.909L10.909 47.643H13.091L13.091 -32.9869ZM-27.2239 9.5101V11.6932L53.406 11.6932V9.5101L-27.2239 9.5101ZM13.091 52.0081H15.2741L15.2741 -28.6218H13.091L13.091 52.0081ZM55.5891 11.6932V9.5101L-25.0409 9.5101V11.6932L55.5891 11.6932ZM15.2741 -30.8049H13.091L13.091 49.8251H15.2741L15.2741 -30.8049ZM-25.0409 11.6932L-25.0409 13.8752L55.5891 13.8752V11.6932L-25.0409 11.6932ZM15.2741 54.1901H17.4561L17.4561 -26.4398H15.2741L15.2741 54.1901ZM57.7711 13.8752V11.6932L-22.8588 11.6932L-22.8588 13.8752L57.7711 13.8752ZM17.4561 -28.6218H15.2741L15.2741 52.0081H17.4561L17.4561 -28.6218ZM15.2741 -26.4398H13.091L13.091 54.1901H15.2741L15.2741 -26.4398ZM-27.2239 13.8752V16.0583L53.406 16.0583V13.8752L-27.2239 13.8752ZM13.091 56.3732H15.2741L15.2741 -24.2567H13.091L13.091 56.3732ZM55.5891 16.0583V13.8752L-25.0409 13.8752V16.0583L55.5891 16.0583ZM13.091 -24.2567L10.909 -24.2567L10.909 56.3732H13.091L13.091 -24.2567ZM-29.406 16.0583V18.236L51.224 18.236V16.0583L-29.406 16.0583ZM10.909 58.551H13.091L13.091 -22.0789L10.909 -22.0789L10.909 58.551ZM53.406 18.236V16.0583L-27.2239 16.0583V18.236L53.406 18.236ZM10.909 -22.0789H8.7302L8.7302 58.551H10.909L10.909 -22.0789ZM-31.5848 18.236V20.4191L49.0452 20.4191V18.236L-31.5848 18.236ZM8.7302 60.7341H10.909L10.909 -19.8959H8.7302L8.7302 60.7341ZM51.224 20.4191V18.236L-29.406 18.236V20.4191L51.224 20.4191ZM8.7302 -19.8959H6.54712L6.54712 60.7341H8.7302L8.7302 -19.8959ZM-33.7678 20.4191V22.6011L46.8621 22.6011V20.4191L-33.7678 20.4191ZM6.54712 62.9161H8.7302L8.7302 -17.7139H6.54712L6.54712 62.9161ZM49.0452 22.6011V20.4191L-31.5848 20.4191V22.6011L49.0452 22.6011ZM6.54712 -17.7139H2.18202L2.18202 62.9161H6.54712L6.54712 -17.7139ZM-38.1329 22.6011L-38.1329 24.7842L42.497 24.7842L42.497 22.6011L-38.1329 22.6011ZM2.18202 65.0991H6.54712L6.54712 -15.5308H2.18202L2.18202 65.0991ZM46.8621 24.7842L46.8621 22.6011L-33.7678 22.6011L-33.7678 24.7842L46.8621 24.7842ZM42.497 22.6011V20.4191L-38.1329 20.4191V22.6011L42.497 22.6011ZM2.18202 -19.8959H0L0 60.7341H2.18202L2.18202 -19.8959ZM-40.315 20.4191V22.6011L40.315 22.6011V20.4191L-40.315 20.4191ZM0 62.9161H2.18202L2.18202 -17.7139H0L0 62.9161ZM2.18202 60.7341H4.3651L4.3651 -19.8959H2.18202L2.18202 60.7341ZM44.6801 20.4191V18.236L-35.9499 18.236V20.4191L44.6801 20.4191ZM4.3651 -22.0789H2.18202L2.18202 58.551H4.3651L4.3651 -22.0789ZM-38.1329 18.236V20.4191L42.497 20.4191V18.236L-38.1329 18.236ZM4.3651 58.551H6.54712L6.54712 -22.0789H4.3651L4.3651 58.551ZM46.8621 18.236V16.0583L-33.7678 16.0583V18.236L46.8621 18.236ZM6.54712 -24.2567H4.3651L4.3651 56.3732H6.54712L6.54712 -24.2567ZM-35.9499 16.0583V18.236L44.6801 18.236V16.0583L-35.9499 16.0583ZM6.54712 56.3732H8.7302L8.7302 -24.2567H6.54712L6.54712 56.3732ZM49.0452 16.0583V13.8752L-31.5848 13.8752V16.0583L49.0452 16.0583ZM8.7302 -26.4398H6.54712L6.54712 54.1901H8.7302L8.7302 -26.4398ZM-33.7678 13.8752V16.0583L46.8621 16.0583V13.8752L-33.7678 13.8752ZM8.7302 54.1901H10.909L10.909 -26.4398H8.7302L8.7302 54.1901ZM51.224 13.8752V11.6932L-29.406 11.6932L-29.406 13.8752L51.224 13.8752ZM10.909 -28.6218H8.7302L8.7302 52.0081H10.909L10.909 -28.6218ZM-31.5848 11.6932L-31.5848 13.8752L49.0452 13.8752V11.6932L-31.5848 11.6932ZM49.0452 11.6932V9.5101L-31.5848 9.5101V11.6932L49.0452 11.6932ZM8.7302 -30.8049H6.54712L6.54712 49.8251H8.7302L8.7302 -30.8049ZM-33.7678 9.5101V11.6932L46.8621 11.6932V9.5101L-33.7678 9.5101ZM6.54712 52.0081H8.7302L8.7302 -28.6218H6.54712L6.54712 52.0081ZM46.8621 9.5101V7.32809L-33.7678 7.32809V9.5101L46.8621 9.5101ZM6.54712 -32.9869H4.3651L4.3651 47.643H6.54712L6.54712 -32.9869ZM-35.9499 7.32809V9.5101L44.6801 9.5101V7.32809L-35.9499 7.32809ZM4.3651 49.8251H6.54712L6.54712 -30.8049H4.3651L4.3651 49.8251ZM44.6801 7.32809V5.14502L-35.9499 5.14502V7.32809L44.6801 7.32809ZM4.3651 -35.1699H2.18202L2.18202 45.46H4.3651L4.3651 -35.1699ZM-38.1329 5.14502V7.32809L42.497 7.32809V5.14502L-38.1329 5.14502ZM2.18202 47.643H4.3651L4.3651 -32.9869H2.18202L2.18202 47.643ZM42.497 5.14502V2.96299L-38.1329 2.96299V5.14502L42.497 5.14502ZM2.18202 -37.352H0L0 43.2779H2.18202L2.18202 -37.352ZM-40.315 2.96299V5.14502L40.315 5.14502V2.96299L-40.315 2.96299ZM0 45.46H2.18202L2.18202 -35.1699H0L0 45.46Z" fill="#5A20FF" mask="url(#path-1-inside-1)"/>
</g>
<defs>
<clipPath id="clip0">
<rect width="17.4561" height="24" fill="white" transform="translate(0 0.78418)"/>
</clipPath>
</defs>
</svg>
