<svg width="18" height="24" viewBox="0 0 18 24" fill="none" xmlns="http://www.w3.org/2000/svg">
<g clip-path="url(#clip0)">
<mask id="path-1-inside-1" fill="white">
<path d="M2.18202 0L2.18202 2.17881L6.54712 2.17881V0L2.18202 0ZM6.54712 2.17881L6.54712 4.36084L8.7302 4.36084V2.17881L6.54712 2.17881ZM8.7302 4.36084L8.7302 6.54391H10.909L10.909 4.36084H8.7302ZM10.909 6.54391V8.72592H13.091V6.54391H10.909ZM13.091 8.72592V10.909H15.2741V8.72592H13.091ZM15.2741 10.909V13.091L17.4561 13.091L17.4561 10.909L15.2741 10.909ZM15.2741 13.091H13.091V15.2741H15.2741V13.091ZM13.091 15.2741H10.909L10.909 17.4518L13.091 17.4518L13.091 15.2741ZM10.909 17.4518H8.7302V19.6349H10.909V17.4518ZM8.7302 19.6349H6.54712V21.8169H8.7302V19.6349ZM6.54712 21.8169H2.18202L2.18202 24H6.54712V21.8169ZM2.18202 21.8169L2.18202 19.6349H0L0 21.8169H2.18202ZM2.18202 19.6349H4.3651L4.3651 17.4518H2.18202L2.18202 19.6349ZM4.3651 17.4518H6.54712V15.2741L4.3651 15.2741V17.4518ZM6.54712 15.2741H8.7302V13.091H6.54712L6.54712 15.2741ZM8.7302 13.091H10.909V10.909H8.7302V13.091ZM8.7302 10.909V8.72592H6.54712V10.909H8.7302ZM6.54712 8.72592L6.54712 6.54391H4.3651L4.3651 8.72592L6.54712 8.72592ZM4.3651 6.54391V4.36084L2.18202 4.36084V6.54391L4.3651 6.54391ZM2.18202 4.36084L2.18202 2.17881L0 2.17881L0 4.36084H2.18202Z"/>
</mask>
<path d="M2.18202 0L2.18202 -40.315L-38.1329 -40.315L-38.1329 0L2.18202 0ZM2.18202 2.17881L-38.1329 2.17881L-38.1329 42.4938L2.18202 42.4938L2.18202 2.17881ZM6.54712 2.17881L6.54712 42.4938L46.8621 42.4938L46.8621 2.17881L6.54712 2.17881ZM6.54712 0L46.8621 0L46.8621 -40.315L6.54712 -40.315L6.54712 0ZM6.54712 2.17881L6.54712 -38.1362L-33.7678 -38.1362L-33.7678 2.17881L6.54712 2.17881ZM6.54712 4.36084L-33.7678 4.36084L-33.7678 44.6758L6.54712 44.6758L6.54712 4.36084ZM8.7302 4.36084L8.7302 44.6758L49.0452 44.6758L49.0452 4.36084L8.7302 4.36084ZM8.7302 2.17881L49.0452 2.17881L49.0452 -38.1362L8.7302 -38.1362L8.7302 2.17881ZM8.7302 4.36084L8.7302 -35.9541L-31.5848 -35.9541L-31.5848 4.36084L8.7302 4.36084ZM8.7302 6.54391L-31.5848 6.54391L-31.5848 46.8589L8.7302 46.8589L8.7302 6.54391ZM10.909 6.54391L10.909 46.8589L51.224 46.8589L51.224 6.54391L10.909 6.54391ZM10.909 4.36084L51.224 4.36084L51.224 -35.9541L10.909 -35.9541L10.909 4.36084ZM10.909 6.54391L10.909 -33.7711L-29.406 -33.7711L-29.406 6.54391L10.909 6.54391ZM10.909 8.72592L-29.406 8.72592L-29.406 49.0409L10.909 49.0409L10.909 8.72592ZM13.091 8.72592L13.091 49.0409L53.406 49.0409L53.406 8.72592L13.091 8.72592ZM13.091 6.54391L53.406 6.54391L53.406 -33.7711L13.091 -33.7711L13.091 6.54391ZM13.091 8.72592L13.091 -31.589L-27.2239 -31.589L-27.2239 8.72592L13.091 8.72592ZM13.091 10.909L-27.2239 10.909L-27.2239 51.224L13.091 51.224L13.091 10.909ZM15.2741 10.909L15.2741 51.224L55.5891 51.224L55.5891 10.909L15.2741 10.909ZM15.2741 8.72592L55.5891 8.72592L55.5891 -31.589L15.2741 -31.589L15.2741 8.72592ZM15.2741 10.909L15.2741 -29.406L-25.0409 -29.406L-25.0409 10.909L15.2741 10.909ZM15.2741 13.091L-25.0409 13.091L-25.0409 53.406L15.2741 53.406L15.2741 13.091ZM17.4561 13.091L17.4561 53.406L57.7711 53.406L57.7711 13.091L17.4561 13.091ZM17.4561 10.909L57.7711 10.909L57.7711 -29.406L17.4561 -29.406L17.4561 10.909ZM15.2741 13.091L55.5891 13.091L55.5891 -27.224L15.2741 -27.224L15.2741 13.091ZM13.091 13.091L13.091 -27.224L-27.2239 -27.224L-27.2239 13.091L13.091 13.091ZM13.091 15.2741L-27.2239 15.2741L-27.2239 55.589L13.091 55.589L13.091 15.2741ZM15.2741 15.2741L15.2741 55.589L55.5891 55.589L55.5891 15.2741L15.2741 15.2741ZM13.091 15.2741L53.406 15.2741L53.406 -25.0409L13.091 -25.0409L13.091 15.2741ZM10.909 15.2741L10.909 -25.0409L-29.406 -25.0409L-29.406 15.2741L10.909 15.2741ZM10.909 17.4518L-29.406 17.4518L-29.406 57.7668L10.909 57.7668L10.909 17.4518ZM13.091 17.4518L13.091 57.7668L53.406 57.7668L53.406 17.4518L13.091 17.4518ZM10.909 17.4518L51.224 17.4518L51.224 -22.8631L10.909 -22.8631L10.909 17.4518ZM8.7302 17.4518L8.7302 -22.8631L-31.5848 -22.8631L-31.5848 17.4518L8.7302 17.4518ZM8.7302 19.6349L-31.5848 19.6349L-31.5848 59.9499L8.7302 59.9499L8.7302 19.6349ZM10.909 19.6349L10.909 59.9499L51.224 59.9499L51.224 19.6349L10.909 19.6349ZM8.7302 19.6349L49.0452 19.6349V-20.68L8.7302 -20.68L8.7302 19.6349ZM6.54712 19.6349L6.54712 -20.68L-33.7678 -20.68V19.6349L6.54712 19.6349ZM6.54712 21.8169L-33.7678 21.8169L-33.7678 62.1319L6.54712 62.1319L6.54712 21.8169ZM8.7302 21.8169L8.7302 62.1319L49.0452 62.1319L49.0452 21.8169L8.7302 21.8169ZM6.54712 21.8169L46.8621 21.8169V-18.498L6.54712 -18.498L6.54712 21.8169ZM2.18202 21.8169L2.18202 -18.498L-38.1329 -18.498V21.8169L2.18202 21.8169ZM2.18202 24L-38.1329 24V64.315H2.18202L2.18202 24ZM6.54712 24L6.54712 64.315L46.8621 64.315V24L6.54712 24ZM2.18202 21.8169L2.18202 62.1319L42.497 62.1319L42.497 21.8169L2.18202 21.8169ZM2.18202 19.6349L42.497 19.6349V-20.68L2.18202 -20.68L2.18202 19.6349ZM0 19.6349L0 -20.68L-40.315 -20.68V19.6349L0 19.6349ZM0 21.8169L-40.315 21.8169L-40.315 62.1319L0 62.1319L0 21.8169ZM2.18202 19.6349L-38.1329 19.6349L-38.1329 59.9499L2.18202 59.9499L2.18202 19.6349ZM4.3651 19.6349L4.3651 59.9499L44.6801 59.9499L44.6801 19.6349L4.3651 19.6349ZM4.3651 17.4518L44.6801 17.4518L44.6801 -22.8631L4.3651 -22.8631L4.3651 17.4518ZM2.18202 17.4518L2.18202 -22.8631L-38.1329 -22.8631L-38.1329 17.4518L2.18202 17.4518ZM4.3651 17.4518L-35.9499 17.4518L-35.9499 57.7668L4.3651 57.7668L4.3651 17.4518ZM6.54712 17.4518L6.54712 57.7668L46.8621 57.7668L46.8621 17.4518L6.54712 17.4518ZM6.54712 15.2741L46.8621 15.2741L46.8621 -25.0409L6.54712 -25.0409L6.54712 15.2741ZM4.3651 15.2741L4.3651 -25.0409L-35.9499 -25.0409L-35.9499 15.2741L4.3651 15.2741ZM6.54712 15.2741L-33.7678 15.2741L-33.7678 55.589L6.54712 55.589L6.54712 15.2741ZM8.7302 15.2741L8.7302 55.589L49.0452 55.589L49.0452 15.2741L8.7302 15.2741ZM8.7302 13.091L49.0452 13.091L49.0452 -27.224L8.7302 -27.224L8.7302 13.091ZM6.54712 13.091L6.54712 -27.224L-33.7678 -27.224L-33.7678 13.091L6.54712 13.091ZM8.7302 13.091L-31.5848 13.091L-31.5848 53.406L8.7302 53.406L8.7302 13.091ZM10.909 13.091L10.909 53.406L51.224 53.406L51.224 13.091L10.909 13.091ZM10.909 10.909L51.224 10.909L51.224 -29.406L10.909 -29.406L10.909 10.909ZM8.7302 10.909L8.7302 -29.406L-31.5848 -29.406L-31.5848 10.909L8.7302 10.909ZM8.7302 10.909L8.7302 51.224L49.0452 51.224L49.0452 10.909L8.7302 10.909ZM8.7302 8.72592L49.0452 8.72592L49.0452 -31.589L8.7302 -31.589L8.7302 8.72592ZM6.54712 8.72592L6.54712 -31.589L-33.7678 -31.589L-33.7678 8.72592L6.54712 8.72592ZM6.54712 10.909L-33.7678 10.909L-33.7678 51.224L6.54712 51.224L6.54712 10.909ZM6.54712 8.72592L6.54712 49.0409L46.8621 49.0409L46.8621 8.72592L6.54712 8.72592ZM6.54712 6.54391L46.8621 6.54391L46.8621 -33.7711L6.54712 -33.7711L6.54712 6.54391ZM4.3651 6.54391L4.3651 -33.7711L-35.9499 -33.7711L-35.9499 6.54391L4.3651 6.54391ZM4.3651 8.72592L-35.9499 8.72592L-35.9499 49.0409L4.3651 49.0409L4.3651 8.72592ZM4.3651 6.54391L4.3651 46.8589L44.6801 46.8589L44.6801 6.54391L4.3651 6.54391ZM4.3651 4.36084L44.6801 4.36084L44.6801 -35.9541L4.3651 -35.9541L4.3651 4.36084ZM2.18202 4.36084L2.18202 -35.9541L-38.1329 -35.9541L-38.1329 4.36084L2.18202 4.36084ZM2.18202 6.54391L-38.1329 6.54391L-38.1329 46.8589L2.18202 46.8589L2.18202 6.54391ZM2.18202 4.36084L2.18202 44.6758L42.497 44.6758L42.497 4.36084L2.18202 4.36084ZM2.18202 2.17881L42.497 2.17881L42.497 -38.1362L2.18202 -38.1362L2.18202 2.17881ZM0 2.17881L0 -38.1362L-40.315 -38.1362L-40.315 2.17881L0 2.17881ZM0 4.36084L-40.315 4.36084L-40.315 44.6758L0 44.6758L0 4.36084ZM-38.1329 0V2.17881L42.497 2.17881V0L-38.1329 0ZM2.18202 42.4938H6.54712L6.54712 -38.1362H2.18202L2.18202 42.4938ZM46.8621 2.17881V0L-33.7678 0V2.17881L46.8621 2.17881ZM6.54712 -40.315H2.18202L2.18202 40.315H6.54712L6.54712 -40.315ZM-33.7678 2.17881V4.36084L46.8621 4.36084V2.17881L-33.7678 2.17881ZM6.54712 44.6758H8.7302L8.7302 -35.9541H6.54712L6.54712 44.6758ZM49.0452 4.36084V2.17881L-31.5848 2.17881V4.36084L49.0452 4.36084ZM8.7302 -38.1362H6.54712L6.54712 42.4938H8.7302L8.7302 -38.1362ZM-31.5848 4.36084V6.54391L49.0452 6.54391V4.36084L-31.5848 4.36084ZM8.7302 46.8589H10.909L10.909 -33.7711H8.7302L8.7302 46.8589ZM51.224 6.54391V4.36084L-29.406 4.36084V6.54391L51.224 6.54391ZM10.909 -35.9541H8.7302L8.7302 44.6758H10.909L10.909 -35.9541ZM-29.406 6.54391V8.72592L51.224 8.72592V6.54391L-29.406 6.54391ZM10.909 49.0409H13.091L13.091 -31.589L10.909 -31.589L10.909 49.0409ZM53.406 8.72592V6.54391L-27.2239 6.54391V8.72592L53.406 8.72592ZM13.091 -33.7711H10.909L10.909 46.8589H13.091L13.091 -33.7711ZM-27.2239 8.72592V10.909L53.406 10.909V8.72592L-27.2239 8.72592ZM13.091 51.224H15.2741L15.2741 -29.406H13.091L13.091 51.224ZM55.5891 10.909V8.72592L-25.0409 8.72592V10.909L55.5891 10.909ZM15.2741 -31.589H13.091L13.091 49.0409H15.2741L15.2741 -31.589ZM-25.0409 10.909L-25.0409 13.091L55.5891 13.091V10.909L-25.0409 10.909ZM15.2741 53.406H17.4561L17.4561 -27.224H15.2741L15.2741 53.406ZM57.7711 13.091V10.909L-22.8588 10.909L-22.8588 13.091L57.7711 13.091ZM17.4561 -29.406H15.2741L15.2741 51.224H17.4561L17.4561 -29.406ZM15.2741 -27.224H13.091L13.091 53.406H15.2741L15.2741 -27.224ZM-27.2239 13.091V15.2741L53.406 15.2741V13.091L-27.2239 13.091ZM13.091 55.589H15.2741L15.2741 -25.0409H13.091L13.091 55.589ZM55.5891 15.2741V13.091L-25.0409 13.091V15.2741L55.5891 15.2741ZM13.091 -25.0409L10.909 -25.0409L10.909 55.589H13.091L13.091 -25.0409ZM-29.406 15.2741V17.4518L51.224 17.4518V15.2741L-29.406 15.2741ZM10.909 57.7668H13.091L13.091 -22.8631L10.909 -22.8631L10.909 57.7668ZM53.406 17.4518V15.2741L-27.2239 15.2741V17.4518L53.406 17.4518ZM10.909 -22.8631H8.7302L8.7302 57.7668H10.909L10.909 -22.8631ZM-31.5848 17.4518V19.6349L49.0452 19.6349V17.4518L-31.5848 17.4518ZM8.7302 59.9499H10.909L10.909 -20.68H8.7302L8.7302 59.9499ZM51.224 19.6349V17.4518L-29.406 17.4518V19.6349L51.224 19.6349ZM8.7302 -20.68H6.54712L6.54712 59.9499H8.7302L8.7302 -20.68ZM-33.7678 19.6349V21.8169L46.8621 21.8169V19.6349L-33.7678 19.6349ZM6.54712 62.1319H8.7302L8.7302 -18.498H6.54712L6.54712 62.1319ZM49.0452 21.8169V19.6349L-31.5848 19.6349V21.8169L49.0452 21.8169ZM6.54712 -18.498H2.18202L2.18202 62.1319H6.54712L6.54712 -18.498ZM-38.1329 21.8169L-38.1329 24L42.497 24L42.497 21.8169L-38.1329 21.8169ZM2.18202 64.315H6.54712L6.54712 -16.315H2.18202L2.18202 64.315ZM46.8621 24L46.8621 21.8169L-33.7678 21.8169L-33.7678 24L46.8621 24ZM42.497 21.8169V19.6349L-38.1329 19.6349V21.8169L42.497 21.8169ZM2.18202 -20.68H0L0 59.9499H2.18202L2.18202 -20.68ZM-40.315 19.6349V21.8169L40.315 21.8169V19.6349L-40.315 19.6349ZM0 62.1319H2.18202L2.18202 -18.498H0L0 62.1319ZM2.18202 59.9499H4.3651L4.3651 -20.68H2.18202L2.18202 59.9499ZM44.6801 19.6349V17.4518L-35.9499 17.4518V19.6349L44.6801 19.6349ZM4.3651 -22.8631H2.18202L2.18202 57.7668H4.3651L4.3651 -22.8631ZM-38.1329 17.4518V19.6349L42.497 19.6349V17.4518L-38.1329 17.4518ZM4.3651 57.7668H6.54712L6.54712 -22.8631H4.3651L4.3651 57.7668ZM46.8621 17.4518V15.2741L-33.7678 15.2741V17.4518L46.8621 17.4518ZM6.54712 -25.0409H4.3651L4.3651 55.589H6.54712L6.54712 -25.0409ZM-35.9499 15.2741V17.4518L44.6801 17.4518V15.2741L-35.9499 15.2741ZM6.54712 55.589H8.7302L8.7302 -25.0409H6.54712L6.54712 55.589ZM49.0452 15.2741V13.091L-31.5848 13.091V15.2741L49.0452 15.2741ZM8.7302 -27.224H6.54712L6.54712 53.406H8.7302L8.7302 -27.224ZM-33.7678 13.091V15.2741L46.8621 15.2741V13.091L-33.7678 13.091ZM8.7302 53.406H10.909L10.909 -27.224H8.7302L8.7302 53.406ZM51.224 13.091V10.909L-29.406 10.909L-29.406 13.091L51.224 13.091ZM10.909 -29.406H8.7302L8.7302 51.224H10.909L10.909 -29.406ZM-31.5848 10.909L-31.5848 13.091L49.0452 13.091V10.909L-31.5848 10.909ZM49.0452 10.909V8.72592L-31.5848 8.72592V10.909L49.0452 10.909ZM8.7302 -31.589H6.54712L6.54712 49.0409H8.7302L8.7302 -31.589ZM-33.7678 8.72592V10.909L46.8621 10.909V8.72592L-33.7678 8.72592ZM6.54712 51.224H8.7302L8.7302 -29.406H6.54712L6.54712 51.224ZM46.8621 8.72592V6.54391L-33.7678 6.54391V8.72592L46.8621 8.72592ZM6.54712 -33.7711H4.3651L4.3651 46.8589H6.54712L6.54712 -33.7711ZM-35.9499 6.54391V8.72592L44.6801 8.72592V6.54391L-35.9499 6.54391ZM4.3651 49.0409H6.54712L6.54712 -31.589H4.3651L4.3651 49.0409ZM44.6801 6.54391V4.36084L-35.9499 4.36084V6.54391L44.6801 6.54391ZM4.3651 -35.9541H2.18202L2.18202 44.6758H4.3651L4.3651 -35.9541ZM-38.1329 4.36084V6.54391L42.497 6.54391V4.36084L-38.1329 4.36084ZM2.18202 46.8589H4.3651L4.3651 -33.7711H2.18202L2.18202 46.8589ZM42.497 4.36084V2.17881L-38.1329 2.17881V4.36084L42.497 4.36084ZM2.18202 -38.1362H0L0 42.4938H2.18202L2.18202 -38.1362ZM-40.315 2.17881V4.36084L40.315 4.36084V2.17881L-40.315 2.17881ZM0 44.6758H2.18202L2.18202 -35.9541H0L0 44.6758Z" fill="white" mask="url(#path-1-inside-1)"/>
</g>
<defs>
<clipPath id="clip0">
<rect width="17.4561" height="24" fill="white"/>
</clipPath>
</defs>
</svg>
